<svg width="24" height="24" viewBox="0 0 24 24" fill="none" xmlns="http://www.w3.org/2000/svg">
<g id="Frame 1">
<g id="Vector">
<mask id="path-1-outside-1_165_7139" maskUnits="userSpaceOnUse" x="1.52637" y="1.5" width="21" height="20" fill="black">
<rect fill="white" x="1.52637" y="1.5" width="21" height="20"/>
<path d="M21.072 10.2725L21.0433 10.2434C20.913 10.1105 20.7579 10.0053 20.5872 9.93363C20.4164 9.86201 20.2334 9.82547 20.0486 9.82615H19.8669L19.8573 9.73881C19.6947 7.88545 18.8913 6.13881 17.5905 4.82884C16.108 3.3345 14.1377 2.5 12.0527 2.5C9.95803 2.5 7.98773 3.3248 6.51479 4.82884C5.21401 6.14852 4.41059 7.89515 4.24799 9.73881L4.23843 9.82615H3.93236C3.55935 9.82615 3.20546 9.9717 2.93765 10.2434C2.8067 10.3756 2.70292 10.5329 2.63232 10.7062C2.56172 10.8794 2.52571 11.0651 2.52638 11.2526V15.5221C2.52638 16.5507 3.04286 17.4143 4.0567 18.0741C5.22358 18.831 6.83042 19.1415 7.85383 19.1706H11.2014L11.2205 19.2385C11.3449 19.6655 11.6223 20.0342 12.0048 20.2574L12.0144 20.2671C12.2822 20.4224 12.5787 20.5 12.8752 20.5C13.0282 20.5 13.1717 20.4806 13.3247 20.4418C13.7647 20.3253 14.1282 20.0439 14.3577 19.6461L14.3673 19.6267C14.5968 19.2191 14.6542 18.7534 14.5394 18.307C14.4247 17.8801 14.1664 17.521 13.803 17.2881L13.7934 17.3075L13.7265 17.2493C13.4682 17.1038 13.1717 17.0164 12.8752 17.0164C12.7222 17.0164 12.5787 17.0358 12.4352 17.0747C11.9953 17.1911 11.6318 17.4725 11.4023 17.8703L11.3927 17.8898C11.3258 18.0159 11.2684 18.142 11.2301 18.2779L11.211 18.3458H7.88252C6.97389 18.3167 5.53921 18.0547 4.50624 17.3755C3.75064 16.8806 3.34893 16.2402 3.34893 15.5124V11.2429C3.34893 11.0876 3.41588 10.9323 3.52109 10.8159C3.63586 10.6995 3.7889 10.6412 3.94193 10.6412H5.30966C5.46269 10.6412 5.61572 10.7092 5.7305 10.8159L5.75919 10.845C5.85484 10.9615 5.91222 11.0973 5.91222 11.2526V15.5803C5.91222 15.8035 6.09395 15.9976 6.3235 15.9976C6.54348 15.9976 6.73477 15.8132 6.73477 15.5803V11.2526C6.73477 10.8935 6.60087 10.5442 6.34263 10.2725C6.33306 10.2628 6.33306 10.2531 6.31394 10.2434C6.18359 10.1105 6.02855 10.0053 5.8578 9.93363C5.68705 9.86201 5.50399 9.82547 5.31922 9.82615H5.07054L5.08011 9.71941C5.24271 8.09892 5.96005 6.56577 7.09823 5.41105C8.4277 4.07197 10.1876 3.3248 12.0622 3.3248C13.9369 3.3248 15.7063 4.06226 17.0262 5.41105C18.174 6.56577 18.8913 8.09892 19.0539 9.71941L19.0635 9.82615H18.6905C18.3174 9.82615 17.9635 9.9717 17.6957 10.2434C17.5648 10.3756 17.461 10.5329 17.3904 10.7062C17.3198 10.8794 17.2838 11.0651 17.2845 11.2526V16.0461C17.2845 16.4051 17.4184 16.7544 17.667 17.0261L17.6957 17.0553C17.9635 17.327 18.3174 17.4822 18.6905 17.4822H20.0582C20.4121 17.4822 20.7373 17.3464 21.0051 17.1135L21.0529 17.065C21.3207 16.7933 21.4737 16.4342 21.4737 16.0558V11.2623C21.4642 10.8838 21.3303 10.5345 21.072 10.2725ZM11.9761 18.734C11.9761 18.5787 12.024 18.4332 12.0909 18.2973L12.1196 18.2488C12.244 18.0644 12.4257 17.9286 12.6457 17.8703C12.7222 17.8509 12.8083 17.8412 12.8848 17.8412C13.0282 17.8412 13.1717 17.8801 13.3056 17.948H13.3247C13.3343 17.9577 13.3534 17.9674 13.3726 17.9771C13.5734 18.1032 13.7073 18.2973 13.7743 18.5205C13.8317 18.7437 13.8125 18.9765 13.7073 19.1803V19.1997C13.6978 19.2191 13.6882 19.2288 13.6786 19.2482C13.5543 19.452 13.363 19.5879 13.143 19.6558C13.0665 19.6752 12.9804 19.6849 12.9039 19.6849C12.7604 19.6849 12.617 19.6461 12.4831 19.5782L12.4735 19.5685C12.4544 19.5588 12.4448 19.5491 12.4257 19.5394H12.4065C12.2153 19.4132 12.0814 19.2191 12.0144 18.996C11.9953 18.928 11.9857 18.8504 11.9857 18.7728V18.734H11.9761ZM20.6512 16.0461C20.6512 16.2013 20.5842 16.3566 20.479 16.473L20.4121 16.541L20.4025 16.5313C20.2973 16.6089 20.1825 16.6477 20.0582 16.6477H18.6905C18.5374 16.6477 18.3844 16.5798 18.2696 16.4633L18.1166 16.2984H18.1548C18.1166 16.2208 18.0975 16.1237 18.0975 16.0364V11.2429C18.0975 11.0876 18.1644 10.9323 18.2696 10.8159C18.3844 10.6995 18.5374 10.6412 18.6905 10.6412H20.0582C20.2112 10.6412 20.3642 10.7092 20.479 10.8159L20.5077 10.845C20.6034 10.9615 20.6607 11.0973 20.6607 11.2526V16.0461H20.6512Z"/>
</mask>
<path d="M21.072 10.2725L21.0433 10.2434C20.913 10.1105 20.7579 10.0053 20.5872 9.93363C20.4164 9.86201 20.2334 9.82547 20.0486 9.82615H19.8669L19.8573 9.73881C19.6947 7.88545 18.8913 6.13881 17.5905 4.82884C16.108 3.3345 14.1377 2.5 12.0527 2.5C9.95803 2.5 7.98773 3.3248 6.51479 4.82884C5.21401 6.14852 4.41059 7.89515 4.24799 9.73881L4.23843 9.82615H3.93236C3.55935 9.82615 3.20546 9.9717 2.93765 10.2434C2.8067 10.3756 2.70292 10.5329 2.63232 10.7062C2.56172 10.8794 2.52571 11.0651 2.52638 11.2526V15.5221C2.52638 16.5507 3.04286 17.4143 4.0567 18.0741C5.22358 18.831 6.83042 19.1415 7.85383 19.1706H11.2014L11.2205 19.2385C11.3449 19.6655 11.6223 20.0342 12.0048 20.2574L12.0144 20.2671C12.2822 20.4224 12.5787 20.5 12.8752 20.5C13.0282 20.5 13.1717 20.4806 13.3247 20.4418C13.7647 20.3253 14.1282 20.0439 14.3577 19.6461L14.3673 19.6267C14.5968 19.2191 14.6542 18.7534 14.5394 18.307C14.4247 17.8801 14.1664 17.521 13.803 17.2881L13.7934 17.3075L13.7265 17.2493C13.4682 17.1038 13.1717 17.0164 12.8752 17.0164C12.7222 17.0164 12.5787 17.0358 12.4352 17.0747C11.9953 17.1911 11.6318 17.4725 11.4023 17.8703L11.3927 17.8898C11.3258 18.0159 11.2684 18.142 11.2301 18.2779L11.211 18.3458H7.88252C6.97389 18.3167 5.53921 18.0547 4.50624 17.3755C3.75064 16.8806 3.34893 16.2402 3.34893 15.5124V11.2429C3.34893 11.0876 3.41588 10.9323 3.52109 10.8159C3.63586 10.6995 3.7889 10.6412 3.94193 10.6412H5.30966C5.46269 10.6412 5.61572 10.7092 5.7305 10.8159L5.75919 10.845C5.85484 10.9615 5.91222 11.0973 5.91222 11.2526V15.5803C5.91222 15.8035 6.09395 15.9976 6.3235 15.9976C6.54348 15.9976 6.73477 15.8132 6.73477 15.5803V11.2526C6.73477 10.8935 6.60087 10.5442 6.34263 10.2725C6.33306 10.2628 6.33306 10.2531 6.31394 10.2434C6.18359 10.1105 6.02855 10.0053 5.8578 9.93363C5.68705 9.86201 5.50399 9.82547 5.31922 9.82615H5.07054L5.08011 9.71941C5.24271 8.09892 5.96005 6.56577 7.09823 5.41105C8.4277 4.07197 10.1876 3.3248 12.0622 3.3248C13.9369 3.3248 15.7063 4.06226 17.0262 5.41105C18.174 6.56577 18.8913 8.09892 19.0539 9.71941L19.0635 9.82615H18.6905C18.3174 9.82615 17.9635 9.9717 17.6957 10.2434C17.5648 10.3756 17.461 10.5329 17.3904 10.7062C17.3198 10.8794 17.2838 11.0651 17.2845 11.2526V16.0461C17.2845 16.4051 17.4184 16.7544 17.667 17.0261L17.6957 17.0553C17.9635 17.327 18.3174 17.4822 18.6905 17.4822H20.0582C20.4121 17.4822 20.7373 17.3464 21.0051 17.1135L21.0529 17.065C21.3207 16.7933 21.4737 16.4342 21.4737 16.0558V11.2623C21.4642 10.8838 21.3303 10.5345 21.072 10.2725ZM11.9761 18.734C11.9761 18.5787 12.024 18.4332 12.0909 18.2973L12.1196 18.2488C12.244 18.0644 12.4257 17.9286 12.6457 17.8703C12.7222 17.8509 12.8083 17.8412 12.8848 17.8412C13.0282 17.8412 13.1717 17.8801 13.3056 17.948H13.3247C13.3343 17.9577 13.3534 17.9674 13.3726 17.9771C13.5734 18.1032 13.7073 18.2973 13.7743 18.5205C13.8317 18.7437 13.8125 18.9765 13.7073 19.1803V19.1997C13.6978 19.2191 13.6882 19.2288 13.6786 19.2482C13.5543 19.452 13.363 19.5879 13.143 19.6558C13.0665 19.6752 12.9804 19.6849 12.9039 19.6849C12.7604 19.6849 12.617 19.6461 12.4831 19.5782L12.4735 19.5685C12.4544 19.5588 12.4448 19.5491 12.4257 19.5394H12.4065C12.2153 19.4132 12.0814 19.2191 12.0144 18.996C11.9953 18.928 11.9857 18.8504 11.9857 18.7728V18.734H11.9761ZM20.6512 16.0461C20.6512 16.2013 20.5842 16.3566 20.479 16.473L20.4121 16.541L20.4025 16.5313C20.2973 16.6089 20.1825 16.6477 20.0582 16.6477H18.6905C18.5374 16.6477 18.3844 16.5798 18.2696 16.4633L18.1166 16.2984H18.1548C18.1166 16.2208 18.0975 16.1237 18.0975 16.0364V11.2429C18.0975 11.0876 18.1644 10.9323 18.2696 10.8159C18.3844 10.6995 18.5374 10.6412 18.6905 10.6412H20.0582C20.2112 10.6412 20.3642 10.7092 20.479 10.8159L20.5077 10.845C20.6034 10.9615 20.6607 11.0973 20.6607 11.2526V16.0461H20.6512Z" fill="#9096A2"/>
<path d="M21.072 10.2725L21.0433 10.2434C20.913 10.1105 20.7579 10.0053 20.5872 9.93363C20.4164 9.86201 20.2334 9.82547 20.0486 9.82615H19.8669L19.8573 9.73881C19.6947 7.88545 18.8913 6.13881 17.5905 4.82884C16.108 3.3345 14.1377 2.5 12.0527 2.5C9.95803 2.5 7.98773 3.3248 6.51479 4.82884C5.21401 6.14852 4.41059 7.89515 4.24799 9.73881L4.23843 9.82615H3.93236C3.55935 9.82615 3.20546 9.9717 2.93765 10.2434C2.8067 10.3756 2.70292 10.5329 2.63232 10.7062C2.56172 10.8794 2.52571 11.0651 2.52638 11.2526V15.5221C2.52638 16.5507 3.04286 17.4143 4.0567 18.0741C5.22358 18.831 6.83042 19.1415 7.85383 19.1706H11.2014L11.2205 19.2385C11.3449 19.6655 11.6223 20.0342 12.0048 20.2574L12.0144 20.2671C12.2822 20.4224 12.5787 20.5 12.8752 20.5C13.0282 20.5 13.1717 20.4806 13.3247 20.4418C13.7647 20.3253 14.1282 20.0439 14.3577 19.6461L14.3673 19.6267C14.5968 19.2191 14.6542 18.7534 14.5394 18.307C14.4247 17.8801 14.1664 17.521 13.803 17.2881L13.7934 17.3075L13.7265 17.2493C13.4682 17.1038 13.1717 17.0164 12.8752 17.0164C12.7222 17.0164 12.5787 17.0358 12.4352 17.0747C11.9953 17.1911 11.6318 17.4725 11.4023 17.8703L11.3927 17.8898C11.3258 18.0159 11.2684 18.142 11.2301 18.2779L11.211 18.3458H7.88252C6.97389 18.3167 5.53921 18.0547 4.50624 17.3755C3.75064 16.8806 3.34893 16.2402 3.34893 15.5124V11.2429C3.34893 11.0876 3.41588 10.9323 3.52109 10.8159C3.63586 10.6995 3.7889 10.6412 3.94193 10.6412H5.30966C5.46269 10.6412 5.61572 10.7092 5.7305 10.8159L5.75919 10.845C5.85484 10.9615 5.91222 11.0973 5.91222 11.2526V15.5803C5.91222 15.8035 6.09395 15.9976 6.3235 15.9976C6.54348 15.9976 6.73477 15.8132 6.73477 15.5803V11.2526C6.73477 10.8935 6.60087 10.5442 6.34263 10.2725C6.33306 10.2628 6.33306 10.2531 6.31394 10.2434C6.18359 10.1105 6.02855 10.0053 5.8578 9.93363C5.68705 9.86201 5.50399 9.82547 5.31922 9.82615H5.07054L5.08011 9.71941C5.24271 8.09892 5.96005 6.56577 7.09823 5.41105C8.4277 4.07197 10.1876 3.3248 12.0622 3.3248C13.9369 3.3248 15.7063 4.06226 17.0262 5.41105C18.174 6.56577 18.8913 8.09892 19.0539 9.71941L19.0635 9.82615H18.6905C18.3174 9.82615 17.9635 9.9717 17.6957 10.2434C17.5648 10.3756 17.461 10.5329 17.3904 10.7062C17.3198 10.8794 17.2838 11.0651 17.2845 11.2526V16.0461C17.2845 16.4051 17.4184 16.7544 17.667 17.0261L17.6957 17.0553C17.9635 17.327 18.3174 17.4822 18.6905 17.4822H20.0582C20.4121 17.4822 20.7373 17.3464 21.0051 17.1135L21.0529 17.065C21.3207 16.7933 21.4737 16.4342 21.4737 16.0558V11.2623C21.4642 10.8838 21.3303 10.5345 21.072 10.2725ZM11.9761 18.734C11.9761 18.5787 12.024 18.4332 12.0909 18.2973L12.1196 18.2488C12.244 18.0644 12.4257 17.9286 12.6457 17.8703C12.7222 17.8509 12.8083 17.8412 12.8848 17.8412C13.0282 17.8412 13.1717 17.8801 13.3056 17.948H13.3247C13.3343 17.9577 13.3534 17.9674 13.3726 17.9771C13.5734 18.1032 13.7073 18.2973 13.7743 18.5205C13.8317 18.7437 13.8125 18.9765 13.7073 19.1803V19.1997C13.6978 19.2191 13.6882 19.2288 13.6786 19.2482C13.5543 19.452 13.363 19.5879 13.143 19.6558C13.0665 19.6752 12.9804 19.6849 12.9039 19.6849C12.7604 19.6849 12.617 19.6461 12.4831 19.5782L12.4735 19.5685C12.4544 19.5588 12.4448 19.5491 12.4257 19.5394H12.4065C12.2153 19.4132 12.0814 19.2191 12.0144 18.996C11.9953 18.928 11.9857 18.8504 11.9857 18.7728V18.734H11.9761ZM20.6512 16.0461C20.6512 16.2013 20.5842 16.3566 20.479 16.473L20.4121 16.541L20.4025 16.5313C20.2973 16.6089 20.1825 16.6477 20.0582 16.6477H18.6905C18.5374 16.6477 18.3844 16.5798 18.2696 16.4633L18.1166 16.2984H18.1548C18.1166 16.2208 18.0975 16.1237 18.0975 16.0364V11.2429C18.0975 11.0876 18.1644 10.9323 18.2696 10.8159C18.3844 10.6995 18.5374 10.6412 18.6905 10.6412H20.0582C20.2112 10.6412 20.3642 10.7092 20.479 10.8159L20.5077 10.845C20.6034 10.9615 20.6607 11.0973 20.6607 11.2526V16.0461H20.6512Z" stroke="#9096A2" stroke-width="0.378947" mask="url(#path-1-outside-1_165_7139)"/>
</g>
</g>
</svg>
