<svg width="22" height="22" viewBox="0 0 22 22" fill="none" xmlns="http://www.w3.org/2000/svg">
<path d="M17.4665 18.2508C17.0732 17.0695 16.2067 16.0257 15.0014 15.2812C13.796 14.5367 12.3191 14.1331 10.7998 14.1331C9.28048 14.1331 7.8036 14.5367 6.59823 15.2812C5.39286 16.0257 4.52637 17.0695 4.13314 18.2508M14.1331 8.57758C14.1331 10.4185 12.6408 11.9109 10.7998 11.9109C8.95886 11.9109 7.46647 10.4185 7.46647 8.57758C7.46647 6.73663 8.95886 5.24425 10.7998 5.24425C12.6408 5.24425 14.1331 6.73663 14.1331 8.57758ZM20.7998 10.7998C20.7998 16.3227 16.3227 20.7998 10.7998 20.7998C5.27696 20.7998 0.799805 16.3227 0.799805 10.7998C0.799805 5.27696 5.27696 0.799805 10.7998 0.799805C16.3227 0.799805 20.7998 5.27696 20.7998 10.7998Z" stroke="#696F8C" stroke-width="1.6" stroke-linecap="round"/>
</svg>
