<svg width="22" height="22" viewBox="0 0 22 22" fill="none" xmlns="http://www.w3.org/2000/svg">
<path d="M8.62664 11.2818L7.961 10.838L8.62664 11.2818ZM4.57861 15.9116C4.33353 16.2792 4.43287 16.7759 4.80049 17.021C5.16811 17.2661 5.66481 17.1667 5.90989 16.7991L4.57861 15.9116ZM17.021 7.91023C17.2661 7.54261 17.1667 7.04591 16.7991 6.80083C16.4315 6.55575 15.9348 6.65509 15.6897 7.02271L17.021 7.91023ZM12.973 12.5401L13.6386 12.9838L12.973 12.5401ZM11.0547 12.4206L11.7702 12.0629L11.0547 12.4206ZM10.5449 11.4012L11.2605 11.0434L10.5449 11.4012ZM7.961 10.838L4.57861 15.9116L5.90989 16.7991L9.29228 11.7255L7.961 10.838ZM15.6897 7.02271L12.3073 12.0963L13.6386 12.9838L17.021 7.91023L15.6897 7.02271ZM11.7702 12.0629L11.2605 11.0434L9.82941 11.759L10.3391 12.7784L11.7702 12.0629ZM12.3073 12.0963C12.1748 12.2951 11.877 12.2765 11.7702 12.0629L10.3391 12.7784C10.9954 14.0909 12.8246 14.2048 13.6386 12.9838L12.3073 12.0963ZM9.29228 11.7255C9.42479 11.5268 9.72258 11.5453 9.82941 11.759L11.2605 11.0434C10.6043 9.73095 8.77496 9.61707 7.961 10.838L9.29228 11.7255ZM5.24425 1.5998H16.3554V-0.000195324H5.24425V1.5998ZM19.9998 5.24425V16.3554H21.5998V5.24425H19.9998ZM16.3554 19.9998H5.24425V21.5998H16.3554V19.9998ZM1.5998 16.3554V5.24425H-0.000195324V16.3554H1.5998ZM5.24425 19.9998C4.17407 19.9998 3.45191 19.9981 2.91247 19.9256C2.39603 19.8561 2.16839 19.7353 2.01636 19.5832L0.884993 20.7146C1.38385 21.2135 2.00542 21.418 2.69927 21.5113C3.37011 21.6015 4.2193 21.5998 5.24425 21.5998V19.9998ZM-0.000195324 16.3554C-0.000195324 17.3803 -0.0018943 18.2295 0.0882977 18.9003C0.181584 19.5942 0.386141 20.2158 0.884993 20.7146L2.01636 19.5832C1.86434 19.4312 1.74346 19.2036 1.67403 18.6871C1.6015 18.1477 1.5998 17.4255 1.5998 16.3554H-0.000195324ZM19.9998 16.3554C19.9998 17.4255 19.9981 18.1477 19.9256 18.6871C19.8561 19.2036 19.7353 19.4312 19.5832 19.5832L20.7146 20.7146C21.2135 20.2158 21.418 19.5942 21.5113 18.9003C21.6015 18.2295 21.5998 17.3803 21.5998 16.3554H19.9998ZM16.3554 21.5998C17.3803 21.5998 18.2295 21.6015 18.9003 21.5113C19.5942 21.418 20.2158 21.2135 20.7146 20.7146L19.5832 19.5832C19.4312 19.7353 19.2036 19.8561 18.6871 19.9256C18.1477 19.9981 17.4255 19.9998 16.3554 19.9998V21.5998ZM16.3554 1.5998C17.4255 1.5998 18.1477 1.6015 18.6871 1.67403C19.2036 1.74346 19.4312 1.86434 19.5832 2.01636L20.7146 0.884993C20.2158 0.386141 19.5942 0.181584 18.9003 0.0882977C18.2295 -0.0018943 17.3803 -0.000195324 16.3554 -0.000195324V1.5998ZM21.5998 5.24425C21.5998 4.2193 21.6015 3.37011 21.5113 2.69927C21.418 2.00542 21.2135 1.38385 20.7146 0.884993L19.5832 2.01636C19.7353 2.16839 19.8561 2.39603 19.9256 2.91247C19.9981 3.45191 19.9998 4.17407 19.9998 5.24425H21.5998ZM5.24425 -0.000195324C4.2193 -0.000195324 3.37011 -0.0018943 2.69927 0.0882977C2.00542 0.181584 1.38385 0.386141 0.884993 0.884993L2.01636 2.01636C2.16839 1.86434 2.39603 1.74346 2.91247 1.67403C3.45191 1.6015 4.17407 1.5998 5.24425 1.5998V-0.000195324ZM1.5998 5.24425C1.5998 4.17407 1.6015 3.45191 1.67403 2.91247C1.74346 2.39603 1.86434 2.16839 2.01636 2.01636L0.884993 0.884993C0.386141 1.38385 0.181584 2.00542 0.0882977 2.69927C-0.0018943 3.37011 -0.000195324 4.2193 -0.000195324 5.24425H1.5998Z" fill="#696F8C"/>
</svg>
