<svg width="20" height="20" viewBox="0 0 20 20" fill="none" xmlns="http://www.w3.org/2000/svg">
<path d="M0.65039 3.05039L0.65039 14.6504C0.65039 16.536 0.65039 17.4788 1.23618 18.0646C1.82196 18.6504 2.76477 18.6504 4.65039 18.6504L16.6504 18.6504C17.5932 18.6504 18.0646 18.6504 18.3575 18.3575C18.6504 18.0646 18.6504 17.5932 18.6504 16.6504V15.0504M0.65039 3.05039C0.65039 4.37587 1.72491 5.45039 3.05039 5.45039L16.6504 5.45039C17.5932 5.45039 18.0646 5.45039 18.3575 5.74328C18.6504 6.03618 18.6504 6.50758 18.6504 7.45039L18.6504 10.2504M0.65039 3.05039C0.65039 1.72491 1.72491 0.65039 3.05039 0.65039L16.7647 0.65039C16.9375 0.65039 17.0238 0.65039 17.0942 0.671515C17.2551 0.719827 17.381 0.845702 17.4293 1.00659C17.4504 1.07694 17.4504 1.16333 17.4504 1.3361C17.4504 2.37277 17.4504 2.8911 17.3236 3.31319C17.0338 4.27852 16.2785 5.03377 15.3132 5.32364C14.8911 5.45039 14.3728 5.45039 13.3361 5.45039H13.2504M18.6504 15.0504H15.8504C14.9076 15.0504 14.4362 15.0504 14.1433 14.7575C13.8504 14.4646 13.8504 13.9932 13.8504 13.0504V12.2504C13.8504 11.3076 13.8504 10.8362 14.1433 10.5433C14.4362 10.2504 14.9076 10.2504 15.8504 10.2504H18.6504M18.6504 15.0504V10.2504" stroke="#436FE2" stroke-width="1.3"/>
</svg>
