<svg width="22" height="21" viewBox="0 0 22 21" fill="none" xmlns="http://www.w3.org/2000/svg">
<path d="M8.64926 4.14549C9.5612 1.91503 10.0172 0.799805 10.8013 0.799805C11.5854 0.799805 12.0413 1.91503 12.9533 4.14549L12.9957 4.24936C13.5109 5.50945 13.7685 6.1395 14.2936 6.52245C14.8186 6.90541 15.5077 6.96596 16.8861 7.08707L17.1353 7.10896C19.3912 7.30717 20.5191 7.40628 20.7604 8.11031C21.0018 8.81435 20.1641 9.56202 18.4888 11.0574L17.9297 11.5564C17.0816 12.3134 16.6576 12.6919 16.46 13.1879C16.4231 13.2805 16.3925 13.3753 16.3682 13.4717C16.2383 13.9889 16.3625 14.5379 16.6108 15.6361L16.6881 15.9779C17.1445 17.996 17.3727 19.0051 16.9743 19.4403C16.8254 19.603 16.6319 19.7201 16.4169 19.7776C15.8417 19.9316 15.0249 19.2787 13.3915 17.9728C12.3189 17.1154 11.7826 16.6866 11.1669 16.5902C10.9247 16.5523 10.6779 16.5523 10.4357 16.5902C9.81995 16.6866 9.28365 17.1154 8.21106 17.9728C6.5776 19.2787 5.76087 19.9316 5.18561 19.7776C4.97065 19.7201 4.77714 19.603 4.62825 19.4403C4.22981 19.0051 4.45801 17.996 4.91441 15.9779L4.99172 15.6361C5.24006 14.5379 5.36423 13.9889 5.23432 13.4717C5.21008 13.3753 5.17944 13.2805 5.14257 13.1879C4.94493 12.6919 4.5209 12.3134 3.67283 11.5564L3.1137 11.0574C1.4384 9.56202 0.600752 8.81435 0.842102 8.11031C1.08345 7.40628 2.21138 7.30717 4.46725 7.10896L4.71643 7.08707C6.09479 6.96596 6.78397 6.90541 7.30898 6.52245C7.83399 6.1395 8.09159 5.50945 8.6068 4.24935L8.64926 4.14549Z" stroke="#2F66F6" stroke-width="1.6"/>
</svg>
